<svg width="72" height="72" viewBox="0 0 72 72" fill="none" xmlns="http://www.w3.org/2000/svg">
<g filter="url(#filter0_d)">
<circle cx="36" cy="32" r="26" fill="#F24A4A"/>
<circle cx="36" cy="32" r="25.5" stroke="#E2E4EE"/>
</g>
<path d="M42.2037 36.25L39.6637 35.96C39.365 35.9249 39.0623 35.958 38.7782 36.0567C38.4942 36.1554 38.2362 36.3173 38.0237 36.53L36.1837 38.37C33.3449 36.9262 31.0375 34.6188 29.5937 31.78L31.4437 29.93C31.8737 29.5 32.0837 28.9 32.0137 28.29L31.7237 25.77C31.667 25.2822 31.4329 24.8322 31.0659 24.5058C30.699 24.1795 30.2248 23.9994 29.7337 24H28.0037C26.8737 24 25.9337 24.94 26.0037 26.07C26.5337 34.61 33.3637 41.43 41.8937 41.96C43.0237 42.03 43.9637 41.09 43.9637 39.96V38.23C43.9737 37.22 43.2137 36.37 42.2037 36.25Z" fill="white"/>
<defs>
<filter id="filter0_d" x="0" y="0" width="72" height="72" filterUnits="userSpaceOnUse" color-interpolation-filters="sRGB">
<feFlood flood-opacity="0" result="BackgroundImageFix"/>
<feColorMatrix in="SourceAlpha" type="matrix" values="0 0 0 0 0 0 0 0 0 0 0 0 0 0 0 0 0 0 127 0"/>
<feOffset dy="4"/>
<feGaussianBlur stdDeviation="5"/>
<feColorMatrix type="matrix" values="0 0 0 0 0.0447222 0 0 0 0 0.2576 0 0 0 0 0.670833 0 0 0 0.1 0"/>
<feBlend mode="normal" in2="BackgroundImageFix" result="effect1_dropShadow"/>
<feBlend mode="normal" in="SourceGraphic" in2="effect1_dropShadow" result="shape"/>
</filter>
</defs>
</svg>
