<svg width="18" height="17" viewBox="0 0 18 17" fill="none" xmlns="http://www.w3.org/2000/svg">
<path d="M8.85831 0.473611C8.90501 0.339274 9.09499 0.339278 9.14168 0.473609L10.9063 5.55021C11.023 5.88601 11.3364 6.11371 11.6919 6.12095L17.0653 6.23045C17.2075 6.23335 17.2662 6.41403 17.1529 6.49995L12.87 9.74696C12.5867 9.96175 12.467 10.3302 12.57 10.6704L14.1263 15.8147C14.1675 15.9508 14.0138 16.0625 13.8971 15.9813L9.4855 12.9114C9.19368 12.7084 8.80632 12.7084 8.5145 12.9114L4.10294 15.9813C3.9862 16.0625 3.83251 15.9508 3.87369 15.8147L5.43003 10.6704C5.53298 10.3302 5.41327 9.96175 5.12997 9.74696L0.847139 6.49995C0.733807 6.41403 0.792518 6.23335 0.934703 6.23045L6.30813 6.12095C6.66358 6.11371 6.97696 5.88601 7.09369 5.55021L8.85831 0.473611Z" fill="url(#paint0_linear)" stroke="#FAC02B" stroke-width="0.7"/>
<defs>
<linearGradient id="paint0_linear" x1="4.5" y1="2.5" x2="13.5" y2="16" gradientUnits="userSpaceOnUse">
<stop stop-color="#FFD912"/>
<stop offset="0.3125" stop-color="#FFE070"/>
<stop offset="0.671875" stop-color="#FFCF23"/>
</linearGradient>
</defs>
</svg>
